<svg width="300" height="300" viewBox="0 0 300 300" fill="none" xmlns="http://www.w3.org/2000/svg">
<path d="M123.553 104.845C134.089 104.845 142.63 113.386 142.63 123.922V142.999H123.553C113.017 142.999 104.476 134.458 104.476 123.922C104.476 113.386 113.017 104.845 123.553 104.845Z" stroke="#01D957" stroke-width="8"/>
<path d="M195.151 123.615C195.322 134.149 186.919 142.828 176.385 142.998L157.31 143.306L157.002 124.232C156.832 113.697 165.234 105.019 175.768 104.849C186.303 104.678 194.981 113.08 195.151 123.615Z" stroke="#01D957" stroke-width="8"/>
<path d="M104.476 176.447C104.476 165.911 113.017 157.369 123.553 157.369H142.63V176.447C142.63 186.982 134.089 195.524 123.553 195.524C113.017 195.524 104.476 186.982 104.476 176.447Z" stroke="#01D957" stroke-width="8"/>
<path d="M175.707 195.524C165.171 195.524 156.629 186.982 156.629 176.447V157.369H175.707C186.242 157.369 194.784 165.911 194.784 176.447C194.784 186.982 186.242 195.524 175.707 195.524Z" stroke="white" stroke-width="8"/>
</svg>