<svg width="100" height="100" viewBox="0 0 100 100" fill="none" xmlns="http://www.w3.org/2000/svg">
<path d="M23.0771 4.36865C33.6129 4.36877 42.1543 12.91 42.1543 23.4458V42.5229H23.0771C12.5413 42.5229 4.00012 33.9816 4 23.4458C4 12.9099 12.5413 4.36865 23.0771 4.36865Z" stroke="#01D957" stroke-width="8"/>
<path d="M94.6753 23.1388C94.8455 33.6732 86.4434 42.3515 75.909 42.5218L56.8343 42.8301L56.526 23.7555C56.3557 13.221 64.7579 4.54289 75.2923 4.37248C85.8268 4.20218 94.505 12.6043 94.6753 23.1388Z" stroke="#01D957" stroke-width="8"/>
<path d="M4 75.9705C4.00012 65.4347 12.5413 56.8933 23.0771 56.8933H42.1543V75.9705C42.1543 86.5063 33.6129 95.0475 23.0771 95.0476C12.5413 95.0476 4 86.5064 4 75.9705Z" stroke="#01D957" stroke-width="8"/>
<path d="M4 75.9705C4.00012 65.4347 12.5413 56.8933 23.0771 56.8933H42.1543V75.9705C42.1543 86.5063 33.6129 95.0475 23.0771 95.0476C12.5413 95.0476 4 86.5064 4 75.9705Z" stroke="#01D957" stroke-width="8"/>
<path d="M4 75.9705C4.00012 65.4347 12.5413 56.8933 23.0771 56.8933H42.1543V75.9705C42.1543 86.5063 33.6129 95.0475 23.0771 95.0476C12.5413 95.0476 4 86.5064 4 75.9705Z" stroke="#01D957" stroke-width="8"/>
<path d="M75.2305 95.0476C64.6947 95.0475 56.1533 86.5063 56.1533 75.9705L56.1533 56.8933L75.2305 56.8933C85.7663 56.8933 94.3075 65.4347 94.3076 75.9705C94.3076 86.5064 85.7664 95.0476 75.2305 95.0476Z" stroke="white" stroke-width="8"/>
</svg>
