<svg viewBox="-1 -1 102 102" fill="none" xmlns="http://www.w3.org/2000/svg">
<path d="M23.2988 4.37231C33.9573 4.37232 42.5977 13.0127 42.5977 23.6711V42.97H23.2988C12.6404 42.97 4 34.3296 4 23.6711C4 13.0127 12.6404 4.37231 23.2988 4.37231Z" stroke="#01D957" stroke-width="8"/>
<path d="M95.6242 23.3604C95.7964 34.0175 87.2969 42.7964 76.6398 42.9687L57.3435 43.2806L57.0316 23.9843C56.8593 13.3272 65.3589 4.54834 76.0159 4.37606C86.673 4.20379 95.4519 12.7034 95.6242 23.3604Z" stroke="#01D957" stroke-width="8"/>
<path d="M4 76.7012C4 66.0427 12.6404 57.4023 23.2988 57.4023H42.5977V76.7012C42.5977 87.3596 33.9573 96 23.2988 96C12.6404 96 4 87.3596 4 76.7012Z" stroke="#01D957" stroke-width="8"/>
<path d="M75.9541 96C65.2957 96 56.6553 87.3596 56.6553 76.7012L56.6553 57.4023L75.9541 57.4023C86.6125 57.4023 95.2529 66.0427 95.2529 76.7012C95.2529 87.3596 86.6125 96 75.9541 96Z" stroke="white" stroke-width="8"/>
</svg>
